# xmcd
#
# Track frame offsets:
#	150
#	24783
#	42998
#	67573
#	84485
#	110245
#	136188
#	153758
#	174293
#	197165
#	220893
#	227673
#	250553
#	267935
#	283210
#
# Disc length: 4049 seconds
#
# Revision: 1
# Processed by: cddbd v1.5.1PL0 Copyright (c) Steve Scherf et al.
# Submitted via: CDex 1.50Beta5
#
DISCID=c10fcf0f
DTITLE=さまざまなアーティスト - HAPPY HARDCORE BEST
DYEAR=1900
DGENRE=Other
TTITLE0=LET IT BE(MY GUARDIAN ANGEL)/VINYLGROOVER
TTITLE1=VOL.3/BNH
TTITLE2=WAY OF THE WIND/SHADOW K
TTITLE3=FLOWRISH(DJ ANGEL&DJ CHUCKY REMIX)/DJ ANGEL
TTITLE4=30MIN HARDER(EXTENDED VERSION)/JD SHARPNEL
TTITLE5=THE WIZARD /D-FRAG
TTITLE6=RAY OF LIGHT/SELECT
TTITLE7=BRIDGE OVER TROUBLED WATER/E-LOGIC&DNA
TTITLE8=ILLUSION/DJ JO-KENG
TTITLE9=THE HARDCORE FEVER REMIXES(JHAL'S REMIX/DJ ENERGY
TTITLE10=YOU GOT ME/SOUND ASSASSINS
TTITLE11=TOKYO RAVER/DJ CHAMP,DE ZET&INFUL-8
TTITLE12=TIME AFTER TIME(DJ STORM REMIX)/VINYLGROOVER
TTITLE13=THE KEY/DOUGAL&MICKEY SKEEDALE
TTITLE14=MARIA/DJ KAWASAKI
EXTD=
EXTT0=
EXTT1=
EXTT2=
EXTT3=
EXTT4=
EXTT5=
EXTT6=
EXTT7=
EXTT8=
EXTT9=
EXTT10=
EXTT11=
EXTT12=
EXTT13=
EXTT14=
PLAYORDER=
